<?xml version="1.0" standalone="no"?>
<!DOCTYPE svg PUBLIC "-//W3C//DTD SVG 20010904//EN"
 "http://www.w3.org/TR/2001/REC-SVG-20010904/DTD/svg10.dtd">
<svg version="1.0" xmlns="http://www.w3.org/2000/svg"
 width="360.000000pt" height="360.000000pt" viewBox="0 0 360.000000 360.000000"
 preserveAspectRatio="xMidYMid meet">
<metadata>
Created by potrace 1.16, written by Peter Selinger 2001-2019
</metadata>
<g transform="translate(0.000000,360.000000) scale(0.100000,-0.100000)"
fill="#000000" stroke="none">
<path d="M2396 2991 l-190 -88 -297 -239 c-266 -213 -339 -277 -267 -231 12 9
174 97 358 197 l335 181 133 134 c74 74 130 135 125 134 -4 0 -93 -40 -197
-88z"/>
<path d="M2645 2922 l-291 -147 -239 -209 c-132 -115 -242 -211 -245 -214 -3
-3 15 6 40 20 120 67 448 238 457 238 6 0 22 -28 36 -62 72 -183 62 -385 -30
-561 -55 -107 -173 -222 -283 -276 -94 -46 -193 -71 -286 -71 -66 0 -124 9
-124 19 1 3 83 68 183 144 322 243 422 320 412 316 -13 -5 -828 -450 -834
-455 -7 -7 103 -51 174 -69 104 -28 286 -26 389 4 171 48 327 154 420 285 97
136 130 237 131 396 0 63 -2 131 -5 151 l-5 37 370 287 c378 293 416 324 355
288 -19 -12 -188 -107 -375 -213 -187 -106 -355 -201 -372 -212 l-33 -19 -17
35 c-9 20 -15 37 -12 39 2 2 69 57 149 123 131 107 319 261 329 270 12 10 -25
-8 -294 -144z"/>
<path d="M1633 3004 c-252 -55 -468 -241 -548 -471 -43 -123 -55 -276 -29
-378 5 -20 -38 -56 -348 -295 -194 -149 -366 -283 -383 -297 l-30 -25 35 20
c20 10 197 110 394 222 197 111 366 204 375 207 13 3 22 -5 31 -27 7 -18 9
-34 4 -39 -5 -4 -115 -92 -244 -196 -129 -103 -239 -192 -245 -197 -5 -5 124
57 288 137 l298 145 232 207 c288 256 284 252 227 220 -372 -213 -455 -256
-466 -242 -6 9 -24 52 -39 98 -25 71 -28 97 -29 202 0 170 35 274 138 412 78
104 227 200 360 232 53 13 248 17 266 6 10 -6 -38 -43 -419 -324 -177 -131
-200 -150 -141 -118 25 14 180 96 345 182 165 87 338 178 384 203 l83 45 -66
28 c-128 54 -336 73 -473 43z"/>
<path d="M1635 1989 l-360 -200 -137 -137 c-76 -75 -136 -137 -134 -139 2 -2
90 36 196 84 l192 88 228 186 c125 102 264 216 309 253 45 36 78 66 74 65 -4
0 -170 -90 -368 -200z"/>
<path d="M1690 1230 c0 -170 2 -200 15 -200 12 0 15 26 17 156 l3 157 139
-154 c77 -85 143 -155 148 -157 4 -2 8 84 8 192 0 168 -2 196 -15 196 -13 0
-15 -23 -15 -145 0 -80 -3 -145 -7 -144 -5 0 -66 65 -138 144 -71 79 -136 146
-142 149 -10 4 -13 -38 -13 -194z"/>
<path d="M2094 1415 c-2 -5 -2 -93 -1 -195 l2 -185 103 -3 c86 -2 102 0 102
13 0 12 -15 15 -80 15 l-80 0 0 85 0 85 70 0 c40 0 70 4 70 10 0 6 -30 10 -70
10 l-70 0 0 76 0 75 78 -2 c56 -2 77 1 77 10 0 16 -196 21 -201 6z"/>
<path d="M2410 1423 c-30 -11 -60 -47 -66 -79 -10 -54 13 -85 91 -124 73 -36
95 -63 88 -104 -13 -67 -100 -90 -149 -41 -32 32 -36 31 -32 -2 2 -22 11 -31
41 -40 81 -27 168 22 183 102 9 51 -16 82 -99 122 -73 36 -94 64 -77 107 18
50 86 61 125 22 23 -23 23 -23 29 -2 4 13 0 26 -11 34 -17 12 -94 15 -123 5z"/>
<path d="M1090 1408 c0 -7 -11 -89 -25 -182 -29 -199 -29 -196 -11 -196 10 0
16 17 21 58 13 121 27 227 30 230 3 4 70 -117 123 -223 l30 -60 12 30 c18 47
132 255 140 255 4 0 13 -65 20 -145 13 -145 13 -145 38 -145 23 0 24 2 19 43
-4 23 -14 111 -23 195 -10 83 -20 152 -24 152 -4 0 -42 -65 -86 -145 -43 -80
-82 -145 -86 -145 -7 0 -99 160 -139 243 -22 45 -39 60 -39 35z"/>
<path d="M1550 1225 l0 -195 25 0 25 0 0 195 0 195 -25 0 -25 0 0 -195z"/>
<path d="M514 871 c-38 -23 -59 -76 -45 -114 14 -35 47 -56 104 -63 54 -8 77
-25 77 -58 0 -50 -81 -74 -140 -41 -24 13 -50 5 -50 -16 0 -18 62 -39 116 -39
50 0 59 3 90 34 66 66 30 145 -71 160 -80 12 -108 53 -65 96 23 23 64 26 102
6 19 -10 29 -11 37 -3 18 18 13 27 -24 43 -47 19 -94 18 -131 -5z"/>
<path d="M1680 715 l0 -175 110 0 c103 0 110 1 110 20 0 18 -7 20 -85 20 l-85
0 0 55 0 54 73 3 c64 3 72 5 72 23 0 18 -8 20 -72 23 l-73 3 0 49 0 50 85 0
c81 0 85 1 85 23 0 21 -3 22 -110 25 l-110 3 0 -176z"/>
<path d="M1350 821 c0 -30 -4 -41 -15 -41 -8 0 -15 -7 -15 -15 0 -8 7 -15 15
-15 12 0 15 -16 15 -85 0 -72 3 -88 20 -105 27 -27 70 -27 70 0 0 13 -7 20
-20 20 -18 0 -20 7 -20 75 0 41 -1 78 -2 83 -1 4 9 9 23 12 32 7 36 30 5 30
-21 0 -25 5 -28 38 -2 30 -7 38 -25 40 -21 3 -23 -1 -23 -37z"/>
<path d="M1960 820 c0 -29 -4 -40 -15 -40 -8 0 -15 -7 -15 -15 0 -8 7 -15 15
-15 12 0 15 -16 15 -88 0 -99 12 -122 63 -122 35 0 39 37 5 42 -21 3 -23 9
-26 86 -3 82 -3 82 23 82 16 0 25 6 25 15 0 9 -9 15 -25 15 -22 0 -25 4 -25
40 0 33 -3 40 -20 40 -17 0 -20 -7 -20 -40z"/>
<path d="M780 783 c-32 -12 -41 -25 -29 -39 8 -10 16 -11 29 -4 26 14 74 12
88 -2 7 -7 12 -22 12 -35 0 -21 -5 -23 -46 -23 -45 0 -82 -13 -96 -34 -16 -24
-8 -75 14 -90 26 -18 80 -21 109 -6 13 8 19 7 19 0 0 -6 10 -10 23 -8 21 3 22
7 22 100 0 86 -3 100 -21 119 -22 21 -94 35 -124 22z"/>
<path d="M1090 665 c0 -118 1 -125 20 -125 18 0 20 7 20 83 0 92 15 127 55
127 44 0 55 -23 55 -121 0 -88 0 -89 25 -89 25 0 25 1 25 88 0 96 -11 129 -52
151 -23 13 -32 14 -64 2 -28 -10 -39 -11 -42 -2 -2 6 -12 11 -23 11 -18 0 -19
-8 -19 -125z"/>
<path d="M2255 781 c-78 -32 -88 -192 -16 -231 54 -29 177 6 137 39 -12 10
-19 10 -38 -3 -32 -22 -55 -20 -83 9 -45 44 -35 55 55 55 l80 0 0 38 c-1 72
-69 119 -135 93z"/>
<path d="M2447 783 c-4 -3 -7 -60 -7 -125 l0 -118 25 0 c25 0 25 1 25 89 0 68
4 93 16 105 19 20 44 20 70 2 16 -12 20 -29 22 -105 4 -82 6 -91 23 -91 17 0
19 8 19 89 0 49 -4 101 -9 114 -13 34 -62 52 -103 38 -21 -8 -35 -8 -42 -1
-11 11 -30 13 -39 3z"/>
<path d="M2700 664 c0 -124 0 -125 23 -122 21 3 22 8 25 93 3 94 13 115 53
115 38 0 49 -27 49 -121 0 -88 0 -89 25 -89 25 0 25 1 25 88 0 96 -11 129 -52
151 -23 13 -32 14 -64 2 -28 -10 -39 -11 -42 -2 -2 6 -12 11 -23 11 -18 0 -19
-8 -19 -126z"/>
<path d="M2993 771 c-51 -32 -64 -102 -32 -182 18 -45 95 -64 154 -37 28 12
30 19 14 35 -8 8 -19 7 -39 -4 -49 -24 -100 2 -100 51 0 13 14 16 81 16 l82 0
-6 42 c-11 79 -89 120 -154 79z"/>
</g>
</svg>
